<?xml version="1.0" encoding="utf-8"?>
<!-- Generator: Adobe Illustrator 21.1.0, SVG Export Plug-In . SVG Version: 6.00 Build 0)  -->
<svg version="1.1" id="Capa_1" xmlns="http://www.w3.org/2000/svg" xmlns:xlink="http://www.w3.org/1999/xlink" x="0px" y="0px"
	 viewBox="0 0 188.4 60" style="enable-background:new 0 0 188.4 60;" xml:space="preserve">
<style type="text/css">
	.st0{fill:#004481;}
	.st1{fill:#49A5E6;}
	.st2{fill:none;}
</style>
<g>
	<g>
		<path class="st0" d="M155.5,29.5l-10.1,19.3c-0.2,0.4-0.8,0.4-1.1,0l-10.1-19.3c-0.1-0.2-0.3-0.3-0.5-0.3h-4.9
			c-0.3,0-0.5,0.4-0.4,0.6l16,29.9c0.2,0.4,0.8,0.4,1,0l16-29.9c0.2-0.3-0.1-0.6-0.4-0.6h-4.9C155.9,29.1,155.7,29.3,155.5,29.5"/>
		<path class="st0" d="M161.3,55.2l10.1-19.3c0.2-0.4,0.8-0.4,1.1,0l10.1,19.3c0.1,0.2,0.3,0.3,0.5,0.3h4.9c0.3,0,0.5-0.4,0.4-0.6
			l-16-29.9c-0.2-0.4-0.8-0.4-1,0l-16,29.9c-0.2,0.3,0.1,0.6,0.4,0.6h4.9C161,55.5,161.2,55.4,161.3,55.2"/>
		<path class="st0" d="M92.1,43.4c2.1-1.1,3.4-3.3,3.4-6.2c0-4.8-3.7-8.1-9-8.1H71.3c-0.3,0-0.6,0.3-0.6,0.6v29.6
			c0,0.3,0.3,0.6,0.6,0.6h14.5c7.3,0,11.1-3.1,11.1-9.2C96.9,44.7,92.1,43.4,92.1,43.4 M76.4,33.6h9c3.3,0,5,1.4,5,4s-1.7,4-5,4h-9
			c-0.3,0-0.6-0.3-0.6-0.6v-6.9C75.8,33.9,76.1,33.6,76.4,33.6 M85.6,55.5h-9.1c-0.3,0-0.6-0.3-0.6-0.6v-8.2c0-0.3,0.3-0.6,0.6-0.6
			h9.1c4.4,0,6.3,1.2,6.3,4.7C91.9,54.3,89.9,55.5,85.6,55.5"/>
		<path class="st0" d="M123.2,43.4c2.1-1.1,3.4-3.3,3.4-6.2c0-4.8-3.7-8.1-9-8.1h-15.2c-0.3,0-0.6,0.3-0.6,0.6v29.6
			c0,0.3,0.3,0.6,0.6,0.6h14.5c7.3,0,11.1-3.1,11.1-9.2C128.1,44.7,123.2,43.4,123.2,43.4 M107.6,33.6h9c3.3,0,5,1.4,5,4s-1.7,4-5,4
			h-9c-0.3,0-0.6-0.3-0.6-0.6v-6.9C107,33.9,107.2,33.6,107.6,33.6 M116.7,55.5h-9.1c-0.3,0-0.6-0.3-0.6-0.6v-8.2
			c0-0.3,0.3-0.6,0.6-0.6h9.1c4.4,0,6.3,1.2,6.3,4.7S121.1,55.5,116.7,55.5"/>
	</g>
</g>
<g>
	<polygon class="st1" points="0,18.2 0,0 11.3,0.1 11.3,2.9 3,2.9 3,7.7 9.1,7.8 9.5,10.5 3,10.5 3,18.2 	"/>
	<path class="st1" d="M12.1,14.7l0.1-9.5h3v8.7c0,1.4,0.5,2.1,1.9,2.1c1.3,0,2.4-0.7,3.5-1.7v-9h3l-0.1,13h-2.7l-0.2-1.8
		c-0.9,1-2.5,2.1-4.6,2.1C13.5,18.5,12.1,17.3,12.1,14.7"/>
	<path class="st1" d="M26.7,18.3l0.1-13h2.7l0.2,1.8C30.6,6,32.2,5,34.3,5c2.3,0,3.8,1.2,3.7,3.8v9.5h-2.9V9.7
		c0-1.4-0.6-2.2-1.9-2.2s-2.4,0.6-3.5,1.7v9.1H26.7z"/>
	<path class="st1" d="M40.6,12c0-4.5,2.2-6.8,5.2-6.8c1.7,0,3.1,0.6,4,1.8V0.6l3-0.4l-0.1,18.4H50l-0.2-1.7
		c-0.9,1.1-2.2,1.9-4.1,1.9C42.7,18.6,40.6,16.5,40.6,12 M49.8,14.5V9.2c-1-1-1.9-1.6-3.2-1.6c-1.8,0-3,1.4-3,4.3
		c0,2.7,1.1,4.2,3,4.2C47.9,16.1,48.9,15.5,49.8,14.5"/>
	<path class="st1" d="M55.2,15.2c0-2.9,2.4-4.6,8.4-5.3V9.5c0-1.2-0.7-1.9-2.2-1.9c-1.7,0-2.9,0.7-4.1,1.7l-1.6-1.8
		c1.4-1.3,3.2-2.4,6.1-2.3c3.3,0,4.7,1.7,4.7,4.7v8.6h-2.7l-0.2-1.7c-1.2,1.3-2.8,1.8-4.7,1.8C56.8,18.7,55.2,17.4,55.2,15.2
		 M63.6,14.9V12c-4.1,0.6-5.5,1.5-5.5,2.8c0,1,0.7,1.6,1.8,1.6C61.5,16.4,62.7,15.8,63.6,14.9"/>
	<path class="st1" d="M69,12c0-5,3.3-6.7,6.2-6.7c2.3,0,4.2,1.2,5.2,3.3L78.2,10c-0.6-1.5-1.5-2.2-3-2.2c-1.7,0-3.2,1.3-3.2,4.3
		c0,2.6,1.1,4.3,3.2,4.3c1.5,0,2.5-0.8,3.2-2.4l2.2,1.4c-1.2,2.4-3.2,3.4-5.6,3.4C72,18.8,69,16.8,69,12"/>
	<path class="st1" d="M82.8,2.1c0-0.9,0.6-1.6,1.7-1.6s1.7,0.7,1.7,1.6c0,0.9-0.6,1.6-1.7,1.6C83.4,3.7,82.8,3,82.8,2.1 M83,18.6
		l0.1-13H86l-0.1,13H83z"/>
	<path class="st1" d="M88.7,12.1c0-4.8,3.2-6.8,6.3-6.7c3.1,0,6.2,2,6.2,6.8c0,4.8-3.2,6.8-6.3,6.7C91.8,18.9,88.7,16.9,88.7,12.1
		 M98.3,12.2c0-2.4-1-4.2-3.3-4.2c-2.1,0-3.3,1.6-3.3,4.2c0,2.5,1,4.2,3.3,4.2C97.1,16.4,98.2,14.7,98.3,12.2 M95.8,0.2H99l-3.5,4.1
		h-2L95.8,0.2z"/>
	<path class="st1" d="M103.8,18.7l0.1-13h2.7l0.2,1.8c0.9-1.1,2.5-2.1,4.6-2.1c2.3,0,3.8,1.2,3.7,3.8v9.5h-2.9v-8.6
		c0-1.4-0.6-2.2-1.9-2.2s-2.4,0.6-3.5,1.7v9.1H103.8z"/>
	<line class="st2" x1="61.4" y1="5.7" x2="60.9" y2="5.7"/>
</g>
</svg>
